%TF.GenerationSoftware,KiCad,Pcbnew,(6.0.9)*%
%TF.CreationDate,2022-12-21T17:39:27+05:00*%
%TF.ProjectId,vsrgkb-right,76737267-6b62-42d7-9269-6768742e6b69,rev?*%
%TF.SameCoordinates,Original*%
%TF.FileFunction,Legend,Top*%
%TF.FilePolarity,Positive*%
%FSLAX46Y46*%
G04 Gerber Fmt 4.6, Leading zero omitted, Abs format (unit mm)*
G04 Created by KiCad (PCBNEW (6.0.9)) date 2022-12-21 17:39:27*
%MOMM*%
%LPD*%
G01*
G04 APERTURE LIST*
%ADD10C,0.150000*%
%ADD11C,0.120000*%
%ADD12R,1.600000X1.600000*%
%ADD13C,1.600000*%
G04 APERTURE END LIST*
D10*
X113652500Y-111982142D02*
X114366785Y-113982142D01*
X115081071Y-111982142D01*
X116081071Y-113839285D02*
X116366785Y-113982142D01*
X116938214Y-113982142D01*
X117223928Y-113839285D01*
X117366785Y-113553571D01*
X117366785Y-113410714D01*
X117223928Y-113125000D01*
X116938214Y-112982142D01*
X116509642Y-112982142D01*
X116223928Y-112839285D01*
X116081071Y-112553571D01*
X116081071Y-112410714D01*
X116223928Y-112125000D01*
X116509642Y-111982142D01*
X116938214Y-111982142D01*
X117223928Y-112125000D01*
X118652500Y-113982142D02*
X118652500Y-111982142D01*
X118652500Y-112553571D02*
X118795357Y-112267857D01*
X118938214Y-112125000D01*
X119223928Y-111982142D01*
X119509642Y-111982142D01*
X121795357Y-111982142D02*
X121795357Y-114410714D01*
X121652500Y-114696428D01*
X121509642Y-114839285D01*
X121223928Y-114982142D01*
X120795357Y-114982142D01*
X120509642Y-114839285D01*
X121795357Y-113839285D02*
X121509642Y-113982142D01*
X120938214Y-113982142D01*
X120652500Y-113839285D01*
X120509642Y-113696428D01*
X120366785Y-113410714D01*
X120366785Y-112553571D01*
X120509642Y-112267857D01*
X120652500Y-112125000D01*
X120938214Y-111982142D01*
X121509642Y-111982142D01*
X121795357Y-112125000D01*
X123223928Y-113982142D02*
X123223928Y-110982142D01*
X123509642Y-112839285D02*
X124366785Y-113982142D01*
X124366785Y-111982142D02*
X123223928Y-113125000D01*
X125652500Y-113982142D02*
X125652500Y-110982142D01*
X125652500Y-112125000D02*
X125938214Y-111982142D01*
X126509642Y-111982142D01*
X126795357Y-112125000D01*
X126938214Y-112267857D01*
X127081071Y-112553571D01*
X127081071Y-113410714D01*
X126938214Y-113696428D01*
X126795357Y-113839285D01*
X126509642Y-113982142D01*
X125938214Y-113982142D01*
X125652500Y-113839285D01*
X128366785Y-112839285D02*
X130652500Y-112839285D01*
X132081071Y-113982142D02*
X132081071Y-111982142D01*
X132081071Y-112553571D02*
X132223928Y-112267857D01*
X132366785Y-112125000D01*
X132652500Y-111982142D01*
X132938214Y-111982142D01*
X133938214Y-113982142D02*
X133938214Y-111982142D01*
X133938214Y-110982142D02*
X133795357Y-111125000D01*
X133938214Y-111267857D01*
X134081071Y-111125000D01*
X133938214Y-110982142D01*
X133938214Y-111267857D01*
X136652500Y-111982142D02*
X136652500Y-114410714D01*
X136509642Y-114696428D01*
X136366785Y-114839285D01*
X136081071Y-114982142D01*
X135652500Y-114982142D01*
X135366785Y-114839285D01*
X136652500Y-113839285D02*
X136366785Y-113982142D01*
X135795357Y-113982142D01*
X135509642Y-113839285D01*
X135366785Y-113696428D01*
X135223928Y-113410714D01*
X135223928Y-112553571D01*
X135366785Y-112267857D01*
X135509642Y-112125000D01*
X135795357Y-111982142D01*
X136366785Y-111982142D01*
X136652500Y-112125000D01*
X138081071Y-113982142D02*
X138081071Y-110982142D01*
X139366785Y-113982142D02*
X139366785Y-112410714D01*
X139223928Y-112125000D01*
X138938214Y-111982142D01*
X138509642Y-111982142D01*
X138223928Y-112125000D01*
X138081071Y-112267857D01*
X140366785Y-111982142D02*
X141509642Y-111982142D01*
X140795357Y-110982142D02*
X140795357Y-113553571D01*
X140938214Y-113839285D01*
X141223928Y-113982142D01*
X141509642Y-113982142D01*
X142509642Y-112839285D02*
X144795357Y-112839285D01*
X145938214Y-111982142D02*
X146652500Y-113982142D01*
X147366785Y-111982142D01*
X150081071Y-113982142D02*
X148366785Y-113982142D01*
X149223928Y-113982142D02*
X149223928Y-110982142D01*
X148938214Y-111410714D01*
X148652500Y-111696428D01*
X148366785Y-111839285D01*
%TO.C,D9*%
X149082380Y-76615595D02*
X148082380Y-76615595D01*
X148082380Y-76377500D01*
X148130000Y-76234642D01*
X148225238Y-76139404D01*
X148320476Y-76091785D01*
X148510952Y-76044166D01*
X148653809Y-76044166D01*
X148844285Y-76091785D01*
X148939523Y-76139404D01*
X149034761Y-76234642D01*
X149082380Y-76377500D01*
X149082380Y-76615595D01*
X149082380Y-75567976D02*
X149082380Y-75377500D01*
X149034761Y-75282261D01*
X148987142Y-75234642D01*
X148844285Y-75139404D01*
X148653809Y-75091785D01*
X148272857Y-75091785D01*
X148177619Y-75139404D01*
X148130000Y-75187023D01*
X148082380Y-75282261D01*
X148082380Y-75472738D01*
X148130000Y-75567976D01*
X148177619Y-75615595D01*
X148272857Y-75663214D01*
X148510952Y-75663214D01*
X148606190Y-75615595D01*
X148653809Y-75567976D01*
X148701428Y-75472738D01*
X148701428Y-75282261D01*
X148653809Y-75187023D01*
X148606190Y-75139404D01*
X148510952Y-75091785D01*
X149402380Y-79949404D02*
X148402380Y-79949404D01*
X149402380Y-79377976D02*
X148830952Y-79806547D01*
X148402380Y-79377976D02*
X148973809Y-79949404D01*
%TO.C,SW8*%
X122416666Y-63654761D02*
X122559523Y-63702380D01*
X122797619Y-63702380D01*
X122892857Y-63654761D01*
X122940476Y-63607142D01*
X122988095Y-63511904D01*
X122988095Y-63416666D01*
X122940476Y-63321428D01*
X122892857Y-63273809D01*
X122797619Y-63226190D01*
X122607142Y-63178571D01*
X122511904Y-63130952D01*
X122464285Y-63083333D01*
X122416666Y-62988095D01*
X122416666Y-62892857D01*
X122464285Y-62797619D01*
X122511904Y-62750000D01*
X122607142Y-62702380D01*
X122845238Y-62702380D01*
X122988095Y-62750000D01*
X123321428Y-62702380D02*
X123559523Y-63702380D01*
X123750000Y-62988095D01*
X123940476Y-63702380D01*
X124178571Y-62702380D01*
X124702380Y-63130952D02*
X124607142Y-63083333D01*
X124559523Y-63035714D01*
X124511904Y-62940476D01*
X124511904Y-62892857D01*
X124559523Y-62797619D01*
X124607142Y-62750000D01*
X124702380Y-62702380D01*
X124892857Y-62702380D01*
X124988095Y-62750000D01*
X125035714Y-62797619D01*
X125083333Y-62892857D01*
X125083333Y-62940476D01*
X125035714Y-63035714D01*
X124988095Y-63083333D01*
X124892857Y-63130952D01*
X124702380Y-63130952D01*
X124607142Y-63178571D01*
X124559523Y-63226190D01*
X124511904Y-63321428D01*
X124511904Y-63511904D01*
X124559523Y-63607142D01*
X124607142Y-63654761D01*
X124702380Y-63702380D01*
X124892857Y-63702380D01*
X124988095Y-63654761D01*
X125035714Y-63607142D01*
X125083333Y-63511904D01*
X125083333Y-63321428D01*
X125035714Y-63226190D01*
X124988095Y-63178571D01*
X124892857Y-63130952D01*
%TO.C,SW10*%
X85940476Y-97654761D02*
X86083333Y-97702380D01*
X86321428Y-97702380D01*
X86416666Y-97654761D01*
X86464285Y-97607142D01*
X86511904Y-97511904D01*
X86511904Y-97416666D01*
X86464285Y-97321428D01*
X86416666Y-97273809D01*
X86321428Y-97226190D01*
X86130952Y-97178571D01*
X86035714Y-97130952D01*
X85988095Y-97083333D01*
X85940476Y-96988095D01*
X85940476Y-96892857D01*
X85988095Y-96797619D01*
X86035714Y-96750000D01*
X86130952Y-96702380D01*
X86369047Y-96702380D01*
X86511904Y-96750000D01*
X86845238Y-96702380D02*
X87083333Y-97702380D01*
X87273809Y-96988095D01*
X87464285Y-97702380D01*
X87702380Y-96702380D01*
X88607142Y-97702380D02*
X88035714Y-97702380D01*
X88321428Y-97702380D02*
X88321428Y-96702380D01*
X88226190Y-96845238D01*
X88130952Y-96940476D01*
X88035714Y-96988095D01*
X89226190Y-96702380D02*
X89321428Y-96702380D01*
X89416666Y-96750000D01*
X89464285Y-96797619D01*
X89511904Y-96892857D01*
X89559523Y-97083333D01*
X89559523Y-97321428D01*
X89511904Y-97511904D01*
X89464285Y-97607142D01*
X89416666Y-97654761D01*
X89321428Y-97702380D01*
X89226190Y-97702380D01*
X89130952Y-97654761D01*
X89083333Y-97607142D01*
X89035714Y-97511904D01*
X88988095Y-97321428D01*
X88988095Y-97083333D01*
X89035714Y-96892857D01*
X89083333Y-96797619D01*
X89130952Y-96750000D01*
X89226190Y-96702380D01*
%TO.C,SW4*%
X140416666Y-46654761D02*
X140559523Y-46702380D01*
X140797619Y-46702380D01*
X140892857Y-46654761D01*
X140940476Y-46607142D01*
X140988095Y-46511904D01*
X140988095Y-46416666D01*
X140940476Y-46321428D01*
X140892857Y-46273809D01*
X140797619Y-46226190D01*
X140607142Y-46178571D01*
X140511904Y-46130952D01*
X140464285Y-46083333D01*
X140416666Y-45988095D01*
X140416666Y-45892857D01*
X140464285Y-45797619D01*
X140511904Y-45750000D01*
X140607142Y-45702380D01*
X140845238Y-45702380D01*
X140988095Y-45750000D01*
X141321428Y-45702380D02*
X141559523Y-46702380D01*
X141750000Y-45988095D01*
X141940476Y-46702380D01*
X142178571Y-45702380D01*
X142988095Y-46035714D02*
X142988095Y-46702380D01*
X142750000Y-45654761D02*
X142511904Y-46369047D01*
X143130952Y-46369047D01*
%TO.C,D6*%
X95082380Y-76615595D02*
X94082380Y-76615595D01*
X94082380Y-76377500D01*
X94130000Y-76234642D01*
X94225238Y-76139404D01*
X94320476Y-76091785D01*
X94510952Y-76044166D01*
X94653809Y-76044166D01*
X94844285Y-76091785D01*
X94939523Y-76139404D01*
X95034761Y-76234642D01*
X95082380Y-76377500D01*
X95082380Y-76615595D01*
X94082380Y-75187023D02*
X94082380Y-75377500D01*
X94130000Y-75472738D01*
X94177619Y-75520357D01*
X94320476Y-75615595D01*
X94510952Y-75663214D01*
X94891904Y-75663214D01*
X94987142Y-75615595D01*
X95034761Y-75567976D01*
X95082380Y-75472738D01*
X95082380Y-75282261D01*
X95034761Y-75187023D01*
X94987142Y-75139404D01*
X94891904Y-75091785D01*
X94653809Y-75091785D01*
X94558571Y-75139404D01*
X94510952Y-75187023D01*
X94463333Y-75282261D01*
X94463333Y-75472738D01*
X94510952Y-75567976D01*
X94558571Y-75615595D01*
X94653809Y-75663214D01*
X95402380Y-79949404D02*
X94402380Y-79949404D01*
X95402380Y-79377976D02*
X94830952Y-79806547D01*
X94402380Y-79377976D02*
X94973809Y-79949404D01*
%TO.C,D2*%
X113082380Y-59615595D02*
X112082380Y-59615595D01*
X112082380Y-59377500D01*
X112130000Y-59234642D01*
X112225238Y-59139404D01*
X112320476Y-59091785D01*
X112510952Y-59044166D01*
X112653809Y-59044166D01*
X112844285Y-59091785D01*
X112939523Y-59139404D01*
X113034761Y-59234642D01*
X113082380Y-59377500D01*
X113082380Y-59615595D01*
X112177619Y-58663214D02*
X112130000Y-58615595D01*
X112082380Y-58520357D01*
X112082380Y-58282261D01*
X112130000Y-58187023D01*
X112177619Y-58139404D01*
X112272857Y-58091785D01*
X112368095Y-58091785D01*
X112510952Y-58139404D01*
X113082380Y-58710833D01*
X113082380Y-58091785D01*
X113402380Y-62949404D02*
X112402380Y-62949404D01*
X113402380Y-62377976D02*
X112830952Y-62806547D01*
X112402380Y-62377976D02*
X112973809Y-62949404D01*
%TO.C,D10*%
X95082380Y-111091785D02*
X94082380Y-111091785D01*
X94082380Y-110853690D01*
X94130000Y-110710833D01*
X94225238Y-110615595D01*
X94320476Y-110567976D01*
X94510952Y-110520357D01*
X94653809Y-110520357D01*
X94844285Y-110567976D01*
X94939523Y-110615595D01*
X95034761Y-110710833D01*
X95082380Y-110853690D01*
X95082380Y-111091785D01*
X95082380Y-109567976D02*
X95082380Y-110139404D01*
X95082380Y-109853690D02*
X94082380Y-109853690D01*
X94225238Y-109948928D01*
X94320476Y-110044166D01*
X94368095Y-110139404D01*
X94082380Y-108948928D02*
X94082380Y-108853690D01*
X94130000Y-108758452D01*
X94177619Y-108710833D01*
X94272857Y-108663214D01*
X94463333Y-108615595D01*
X94701428Y-108615595D01*
X94891904Y-108663214D01*
X94987142Y-108710833D01*
X95034761Y-108758452D01*
X95082380Y-108853690D01*
X95082380Y-108948928D01*
X95034761Y-109044166D01*
X94987142Y-109091785D01*
X94891904Y-109139404D01*
X94701428Y-109187023D01*
X94463333Y-109187023D01*
X94272857Y-109139404D01*
X94177619Y-109091785D01*
X94130000Y-109044166D01*
X94082380Y-108948928D01*
X95402380Y-113949404D02*
X94402380Y-113949404D01*
X95402380Y-113377976D02*
X94830952Y-113806547D01*
X94402380Y-113377976D02*
X94973809Y-113949404D01*
%TO.C,SW3*%
X122416666Y-46654761D02*
X122559523Y-46702380D01*
X122797619Y-46702380D01*
X122892857Y-46654761D01*
X122940476Y-46607142D01*
X122988095Y-46511904D01*
X122988095Y-46416666D01*
X122940476Y-46321428D01*
X122892857Y-46273809D01*
X122797619Y-46226190D01*
X122607142Y-46178571D01*
X122511904Y-46130952D01*
X122464285Y-46083333D01*
X122416666Y-45988095D01*
X122416666Y-45892857D01*
X122464285Y-45797619D01*
X122511904Y-45750000D01*
X122607142Y-45702380D01*
X122845238Y-45702380D01*
X122988095Y-45750000D01*
X123321428Y-45702380D02*
X123559523Y-46702380D01*
X123750000Y-45988095D01*
X123940476Y-46702380D01*
X124178571Y-45702380D01*
X124464285Y-45702380D02*
X125083333Y-45702380D01*
X124750000Y-46083333D01*
X124892857Y-46083333D01*
X124988095Y-46130952D01*
X125035714Y-46178571D01*
X125083333Y-46273809D01*
X125083333Y-46511904D01*
X125035714Y-46607142D01*
X124988095Y-46654761D01*
X124892857Y-46702380D01*
X124607142Y-46702380D01*
X124511904Y-46654761D01*
X124464285Y-46607142D01*
%TO.C,SW5*%
X68416666Y-97654761D02*
X68559523Y-97702380D01*
X68797619Y-97702380D01*
X68892857Y-97654761D01*
X68940476Y-97607142D01*
X68988095Y-97511904D01*
X68988095Y-97416666D01*
X68940476Y-97321428D01*
X68892857Y-97273809D01*
X68797619Y-97226190D01*
X68607142Y-97178571D01*
X68511904Y-97130952D01*
X68464285Y-97083333D01*
X68416666Y-96988095D01*
X68416666Y-96892857D01*
X68464285Y-96797619D01*
X68511904Y-96750000D01*
X68607142Y-96702380D01*
X68845238Y-96702380D01*
X68988095Y-96750000D01*
X69321428Y-96702380D02*
X69559523Y-97702380D01*
X69750000Y-96988095D01*
X69940476Y-97702380D01*
X70178571Y-96702380D01*
X71035714Y-96702380D02*
X70559523Y-96702380D01*
X70511904Y-97178571D01*
X70559523Y-97130952D01*
X70654761Y-97083333D01*
X70892857Y-97083333D01*
X70988095Y-97130952D01*
X71035714Y-97178571D01*
X71083333Y-97273809D01*
X71083333Y-97511904D01*
X71035714Y-97607142D01*
X70988095Y-97654761D01*
X70892857Y-97702380D01*
X70654761Y-97702380D01*
X70559523Y-97654761D01*
X70511904Y-97607142D01*
%TO.C,D7*%
X113082380Y-76615595D02*
X112082380Y-76615595D01*
X112082380Y-76377500D01*
X112130000Y-76234642D01*
X112225238Y-76139404D01*
X112320476Y-76091785D01*
X112510952Y-76044166D01*
X112653809Y-76044166D01*
X112844285Y-76091785D01*
X112939523Y-76139404D01*
X113034761Y-76234642D01*
X113082380Y-76377500D01*
X113082380Y-76615595D01*
X112082380Y-75710833D02*
X112082380Y-75044166D01*
X113082380Y-75472738D01*
X113402380Y-79949404D02*
X112402380Y-79949404D01*
X113402380Y-79377976D02*
X112830952Y-79806547D01*
X112402380Y-79377976D02*
X112973809Y-79949404D01*
%TO.C,SW1*%
X86416666Y-46654761D02*
X86559523Y-46702380D01*
X86797619Y-46702380D01*
X86892857Y-46654761D01*
X86940476Y-46607142D01*
X86988095Y-46511904D01*
X86988095Y-46416666D01*
X86940476Y-46321428D01*
X86892857Y-46273809D01*
X86797619Y-46226190D01*
X86607142Y-46178571D01*
X86511904Y-46130952D01*
X86464285Y-46083333D01*
X86416666Y-45988095D01*
X86416666Y-45892857D01*
X86464285Y-45797619D01*
X86511904Y-45750000D01*
X86607142Y-45702380D01*
X86845238Y-45702380D01*
X86988095Y-45750000D01*
X87321428Y-45702380D02*
X87559523Y-46702380D01*
X87750000Y-45988095D01*
X87940476Y-46702380D01*
X88178571Y-45702380D01*
X89083333Y-46702380D02*
X88511904Y-46702380D01*
X88797619Y-46702380D02*
X88797619Y-45702380D01*
X88702380Y-45845238D01*
X88607142Y-45940476D01*
X88511904Y-45988095D01*
%TO.C,SW7*%
X104416666Y-63654761D02*
X104559523Y-63702380D01*
X104797619Y-63702380D01*
X104892857Y-63654761D01*
X104940476Y-63607142D01*
X104988095Y-63511904D01*
X104988095Y-63416666D01*
X104940476Y-63321428D01*
X104892857Y-63273809D01*
X104797619Y-63226190D01*
X104607142Y-63178571D01*
X104511904Y-63130952D01*
X104464285Y-63083333D01*
X104416666Y-62988095D01*
X104416666Y-62892857D01*
X104464285Y-62797619D01*
X104511904Y-62750000D01*
X104607142Y-62702380D01*
X104845238Y-62702380D01*
X104988095Y-62750000D01*
X105321428Y-62702380D02*
X105559523Y-63702380D01*
X105750000Y-62988095D01*
X105940476Y-63702380D01*
X106178571Y-62702380D01*
X106464285Y-62702380D02*
X107130952Y-62702380D01*
X106702380Y-63702380D01*
%TO.C,D4*%
X149082380Y-59615595D02*
X148082380Y-59615595D01*
X148082380Y-59377500D01*
X148130000Y-59234642D01*
X148225238Y-59139404D01*
X148320476Y-59091785D01*
X148510952Y-59044166D01*
X148653809Y-59044166D01*
X148844285Y-59091785D01*
X148939523Y-59139404D01*
X149034761Y-59234642D01*
X149082380Y-59377500D01*
X149082380Y-59615595D01*
X148415714Y-58187023D02*
X149082380Y-58187023D01*
X148034761Y-58425119D02*
X148749047Y-58663214D01*
X148749047Y-58044166D01*
X149402380Y-62949404D02*
X148402380Y-62949404D01*
X149402380Y-62377976D02*
X148830952Y-62806547D01*
X148402380Y-62377976D02*
X148973809Y-62949404D01*
%TO.C,SW2*%
X104416666Y-46654761D02*
X104559523Y-46702380D01*
X104797619Y-46702380D01*
X104892857Y-46654761D01*
X104940476Y-46607142D01*
X104988095Y-46511904D01*
X104988095Y-46416666D01*
X104940476Y-46321428D01*
X104892857Y-46273809D01*
X104797619Y-46226190D01*
X104607142Y-46178571D01*
X104511904Y-46130952D01*
X104464285Y-46083333D01*
X104416666Y-45988095D01*
X104416666Y-45892857D01*
X104464285Y-45797619D01*
X104511904Y-45750000D01*
X104607142Y-45702380D01*
X104845238Y-45702380D01*
X104988095Y-45750000D01*
X105321428Y-45702380D02*
X105559523Y-46702380D01*
X105750000Y-45988095D01*
X105940476Y-46702380D01*
X106178571Y-45702380D01*
X106511904Y-45797619D02*
X106559523Y-45750000D01*
X106654761Y-45702380D01*
X106892857Y-45702380D01*
X106988095Y-45750000D01*
X107035714Y-45797619D01*
X107083333Y-45892857D01*
X107083333Y-45988095D01*
X107035714Y-46130952D01*
X106464285Y-46702380D01*
X107083333Y-46702380D01*
%TO.C,J1*%
X63841666Y-78039880D02*
X63841666Y-78754166D01*
X63794047Y-78897023D01*
X63698809Y-78992261D01*
X63555952Y-79039880D01*
X63460714Y-79039880D01*
X64841666Y-79039880D02*
X64270238Y-79039880D01*
X64555952Y-79039880D02*
X64555952Y-78039880D01*
X64460714Y-78182738D01*
X64365476Y-78277976D01*
X64270238Y-78325595D01*
%TO.C,D3*%
X131082380Y-59615595D02*
X130082380Y-59615595D01*
X130082380Y-59377500D01*
X130130000Y-59234642D01*
X130225238Y-59139404D01*
X130320476Y-59091785D01*
X130510952Y-59044166D01*
X130653809Y-59044166D01*
X130844285Y-59091785D01*
X130939523Y-59139404D01*
X131034761Y-59234642D01*
X131082380Y-59377500D01*
X131082380Y-59615595D01*
X130082380Y-58710833D02*
X130082380Y-58091785D01*
X130463333Y-58425119D01*
X130463333Y-58282261D01*
X130510952Y-58187023D01*
X130558571Y-58139404D01*
X130653809Y-58091785D01*
X130891904Y-58091785D01*
X130987142Y-58139404D01*
X131034761Y-58187023D01*
X131082380Y-58282261D01*
X131082380Y-58567976D01*
X131034761Y-58663214D01*
X130987142Y-58710833D01*
X131402380Y-62949404D02*
X130402380Y-62949404D01*
X131402380Y-62377976D02*
X130830952Y-62806547D01*
X130402380Y-62377976D02*
X130973809Y-62949404D01*
%TO.C,D8*%
X131082380Y-76615595D02*
X130082380Y-76615595D01*
X130082380Y-76377500D01*
X130130000Y-76234642D01*
X130225238Y-76139404D01*
X130320476Y-76091785D01*
X130510952Y-76044166D01*
X130653809Y-76044166D01*
X130844285Y-76091785D01*
X130939523Y-76139404D01*
X131034761Y-76234642D01*
X131082380Y-76377500D01*
X131082380Y-76615595D01*
X130510952Y-75472738D02*
X130463333Y-75567976D01*
X130415714Y-75615595D01*
X130320476Y-75663214D01*
X130272857Y-75663214D01*
X130177619Y-75615595D01*
X130130000Y-75567976D01*
X130082380Y-75472738D01*
X130082380Y-75282261D01*
X130130000Y-75187023D01*
X130177619Y-75139404D01*
X130272857Y-75091785D01*
X130320476Y-75091785D01*
X130415714Y-75139404D01*
X130463333Y-75187023D01*
X130510952Y-75282261D01*
X130510952Y-75472738D01*
X130558571Y-75567976D01*
X130606190Y-75615595D01*
X130701428Y-75663214D01*
X130891904Y-75663214D01*
X130987142Y-75615595D01*
X131034761Y-75567976D01*
X131082380Y-75472738D01*
X131082380Y-75282261D01*
X131034761Y-75187023D01*
X130987142Y-75139404D01*
X130891904Y-75091785D01*
X130701428Y-75091785D01*
X130606190Y-75139404D01*
X130558571Y-75187023D01*
X130510952Y-75282261D01*
X131402380Y-79949404D02*
X130402380Y-79949404D01*
X131402380Y-79377976D02*
X130830952Y-79806547D01*
X130402380Y-79377976D02*
X130973809Y-79949404D01*
%TO.C,D1*%
X95082380Y-59615595D02*
X94082380Y-59615595D01*
X94082380Y-59377500D01*
X94130000Y-59234642D01*
X94225238Y-59139404D01*
X94320476Y-59091785D01*
X94510952Y-59044166D01*
X94653809Y-59044166D01*
X94844285Y-59091785D01*
X94939523Y-59139404D01*
X95034761Y-59234642D01*
X95082380Y-59377500D01*
X95082380Y-59615595D01*
X95082380Y-58091785D02*
X95082380Y-58663214D01*
X95082380Y-58377500D02*
X94082380Y-58377500D01*
X94225238Y-58472738D01*
X94320476Y-58567976D01*
X94368095Y-58663214D01*
X95402380Y-62949404D02*
X94402380Y-62949404D01*
X95402380Y-62377976D02*
X94830952Y-62806547D01*
X94402380Y-62377976D02*
X94973809Y-62949404D01*
%TO.C,SW6*%
X86416666Y-63654761D02*
X86559523Y-63702380D01*
X86797619Y-63702380D01*
X86892857Y-63654761D01*
X86940476Y-63607142D01*
X86988095Y-63511904D01*
X86988095Y-63416666D01*
X86940476Y-63321428D01*
X86892857Y-63273809D01*
X86797619Y-63226190D01*
X86607142Y-63178571D01*
X86511904Y-63130952D01*
X86464285Y-63083333D01*
X86416666Y-62988095D01*
X86416666Y-62892857D01*
X86464285Y-62797619D01*
X86511904Y-62750000D01*
X86607142Y-62702380D01*
X86845238Y-62702380D01*
X86988095Y-62750000D01*
X87321428Y-62702380D02*
X87559523Y-63702380D01*
X87750000Y-62988095D01*
X87940476Y-63702380D01*
X88178571Y-62702380D01*
X88988095Y-62702380D02*
X88797619Y-62702380D01*
X88702380Y-62750000D01*
X88654761Y-62797619D01*
X88559523Y-62940476D01*
X88511904Y-63130952D01*
X88511904Y-63511904D01*
X88559523Y-63607142D01*
X88607142Y-63654761D01*
X88702380Y-63702380D01*
X88892857Y-63702380D01*
X88988095Y-63654761D01*
X89035714Y-63607142D01*
X89083333Y-63511904D01*
X89083333Y-63273809D01*
X89035714Y-63178571D01*
X88988095Y-63130952D01*
X88892857Y-63083333D01*
X88702380Y-63083333D01*
X88607142Y-63130952D01*
X88559523Y-63178571D01*
X88511904Y-63273809D01*
%TO.C,D5*%
X77082380Y-110615595D02*
X76082380Y-110615595D01*
X76082380Y-110377500D01*
X76130000Y-110234642D01*
X76225238Y-110139404D01*
X76320476Y-110091785D01*
X76510952Y-110044166D01*
X76653809Y-110044166D01*
X76844285Y-110091785D01*
X76939523Y-110139404D01*
X77034761Y-110234642D01*
X77082380Y-110377500D01*
X77082380Y-110615595D01*
X76082380Y-109139404D02*
X76082380Y-109615595D01*
X76558571Y-109663214D01*
X76510952Y-109615595D01*
X76463333Y-109520357D01*
X76463333Y-109282261D01*
X76510952Y-109187023D01*
X76558571Y-109139404D01*
X76653809Y-109091785D01*
X76891904Y-109091785D01*
X76987142Y-109139404D01*
X77034761Y-109187023D01*
X77082380Y-109282261D01*
X77082380Y-109520357D01*
X77034761Y-109615595D01*
X76987142Y-109663214D01*
X77402380Y-113949404D02*
X76402380Y-113949404D01*
X77402380Y-113377976D02*
X76830952Y-113806547D01*
X76402380Y-113377976D02*
X76973809Y-113949404D01*
%TO.C,SW9*%
X140416666Y-63654761D02*
X140559523Y-63702380D01*
X140797619Y-63702380D01*
X140892857Y-63654761D01*
X140940476Y-63607142D01*
X140988095Y-63511904D01*
X140988095Y-63416666D01*
X140940476Y-63321428D01*
X140892857Y-63273809D01*
X140797619Y-63226190D01*
X140607142Y-63178571D01*
X140511904Y-63130952D01*
X140464285Y-63083333D01*
X140416666Y-62988095D01*
X140416666Y-62892857D01*
X140464285Y-62797619D01*
X140511904Y-62750000D01*
X140607142Y-62702380D01*
X140845238Y-62702380D01*
X140988095Y-62750000D01*
X141321428Y-62702380D02*
X141559523Y-63702380D01*
X141750000Y-62988095D01*
X141940476Y-63702380D01*
X142178571Y-62702380D01*
X142607142Y-63702380D02*
X142797619Y-63702380D01*
X142892857Y-63654761D01*
X142940476Y-63607142D01*
X143035714Y-63464285D01*
X143083333Y-63273809D01*
X143083333Y-62892857D01*
X143035714Y-62797619D01*
X142988095Y-62750000D01*
X142892857Y-62702380D01*
X142702380Y-62702380D01*
X142607142Y-62750000D01*
X142559523Y-62797619D01*
X142511904Y-62892857D01*
X142511904Y-63130952D01*
X142559523Y-63226190D01*
X142607142Y-63273809D01*
X142702380Y-63321428D01*
X142892857Y-63321428D01*
X142988095Y-63273809D01*
X143035714Y-63226190D01*
X143083333Y-63130952D01*
D11*
%TO.C,D9*%
X151870000Y-73757500D02*
X149630000Y-73757500D01*
X150750000Y-78647500D02*
X150750000Y-77997500D01*
X149630000Y-77157500D02*
X151870000Y-77157500D01*
X149630000Y-77997500D02*
X151870000Y-77997500D01*
X149630000Y-73757500D02*
X149630000Y-77997500D01*
X149630000Y-77397500D02*
X151870000Y-77397500D01*
X149630000Y-77277500D02*
X151870000Y-77277500D01*
X150750000Y-73107500D02*
X150750000Y-73757500D01*
X151870000Y-77997500D02*
X151870000Y-73757500D01*
%TO.C,SW8*%
X116150000Y-79850000D02*
X131350000Y-79850000D01*
X116150000Y-64650000D02*
X116150000Y-79850000D01*
X131350000Y-64650000D02*
X116150000Y-64650000D01*
X131350000Y-79850000D02*
X131350000Y-64650000D01*
%TO.C,SW10*%
X80150000Y-98650000D02*
X80150000Y-113850000D01*
X80150000Y-113850000D02*
X95350000Y-113850000D01*
X95350000Y-98650000D02*
X80150000Y-98650000D01*
X95350000Y-113850000D02*
X95350000Y-98650000D01*
%TO.C,SW4*%
X149350000Y-47650000D02*
X134150000Y-47650000D01*
X149350000Y-62850000D02*
X149350000Y-47650000D01*
X134150000Y-47650000D02*
X134150000Y-62850000D01*
X134150000Y-62850000D02*
X149350000Y-62850000D01*
%TO.C,D6*%
X97870000Y-73757500D02*
X95630000Y-73757500D01*
X96750000Y-73107500D02*
X96750000Y-73757500D01*
X97870000Y-77997500D02*
X97870000Y-73757500D01*
X96750000Y-78647500D02*
X96750000Y-77997500D01*
X95630000Y-77397500D02*
X97870000Y-77397500D01*
X95630000Y-77157500D02*
X97870000Y-77157500D01*
X95630000Y-77277500D02*
X97870000Y-77277500D01*
X95630000Y-73757500D02*
X95630000Y-77997500D01*
X95630000Y-77997500D02*
X97870000Y-77997500D01*
%TO.C,D2*%
X113630000Y-60997500D02*
X115870000Y-60997500D01*
X114750000Y-61647500D02*
X114750000Y-60997500D01*
X113630000Y-60397500D02*
X115870000Y-60397500D01*
X115870000Y-60997500D02*
X115870000Y-56757500D01*
X113630000Y-56757500D02*
X113630000Y-60997500D01*
X113630000Y-60277500D02*
X115870000Y-60277500D01*
X115870000Y-56757500D02*
X113630000Y-56757500D01*
X114750000Y-56107500D02*
X114750000Y-56757500D01*
X113630000Y-60157500D02*
X115870000Y-60157500D01*
%TO.C,D10*%
X95630000Y-111397500D02*
X97870000Y-111397500D01*
X97870000Y-111997500D02*
X97870000Y-107757500D01*
X96750000Y-107107500D02*
X96750000Y-107757500D01*
X95630000Y-107757500D02*
X95630000Y-111997500D01*
X96750000Y-112647500D02*
X96750000Y-111997500D01*
X97870000Y-107757500D02*
X95630000Y-107757500D01*
X95630000Y-111157500D02*
X97870000Y-111157500D01*
X95630000Y-111277500D02*
X97870000Y-111277500D01*
X95630000Y-111997500D02*
X97870000Y-111997500D01*
%TO.C,SW3*%
X131350000Y-62850000D02*
X131350000Y-47650000D01*
X131350000Y-47650000D02*
X116150000Y-47650000D01*
X116150000Y-62850000D02*
X131350000Y-62850000D01*
X116150000Y-47650000D02*
X116150000Y-62850000D01*
%TO.C,SW5*%
X62150000Y-98650000D02*
X62150000Y-113850000D01*
X77350000Y-113850000D02*
X77350000Y-98650000D01*
X77350000Y-98650000D02*
X62150000Y-98650000D01*
X62150000Y-113850000D02*
X77350000Y-113850000D01*
%TO.C,D7*%
X115870000Y-73757500D02*
X113630000Y-73757500D01*
X113630000Y-73757500D02*
X113630000Y-77997500D01*
X115870000Y-77997500D02*
X115870000Y-73757500D01*
X114750000Y-78647500D02*
X114750000Y-77997500D01*
X113630000Y-77397500D02*
X115870000Y-77397500D01*
X113630000Y-77157500D02*
X115870000Y-77157500D01*
X113630000Y-77997500D02*
X115870000Y-77997500D01*
X114750000Y-73107500D02*
X114750000Y-73757500D01*
X113630000Y-77277500D02*
X115870000Y-77277500D01*
D10*
%TO.C,U1*%
X63690000Y-48510000D02*
X63690000Y-45970000D01*
X71310000Y-45970000D02*
X71310000Y-48510000D01*
X63690000Y-45970000D02*
X71310000Y-45970000D01*
X71310000Y-48510000D02*
X76390000Y-48510000D01*
X58610000Y-48510000D02*
X63690000Y-48510000D01*
X76390000Y-48510000D02*
X76390000Y-78990000D01*
X58610000Y-48510000D02*
X58610000Y-78990000D01*
X76390000Y-78990000D02*
X58610000Y-78990000D01*
D11*
%TO.C,SW1*%
X80150000Y-62850000D02*
X95350000Y-62850000D01*
X95350000Y-47650000D02*
X80150000Y-47650000D01*
X95350000Y-62850000D02*
X95350000Y-47650000D01*
X80150000Y-47650000D02*
X80150000Y-62850000D01*
%TO.C,SW7*%
X98150000Y-79850000D02*
X113350000Y-79850000D01*
X113350000Y-64650000D02*
X98150000Y-64650000D01*
X113350000Y-79850000D02*
X113350000Y-64650000D01*
X98150000Y-64650000D02*
X98150000Y-79850000D01*
%TO.C,D4*%
X149630000Y-60397500D02*
X151870000Y-60397500D01*
X151870000Y-56757500D02*
X149630000Y-56757500D01*
X149630000Y-56757500D02*
X149630000Y-60997500D01*
X151870000Y-60997500D02*
X151870000Y-56757500D01*
X149630000Y-60997500D02*
X151870000Y-60997500D01*
X149630000Y-60277500D02*
X151870000Y-60277500D01*
X149630000Y-60157500D02*
X151870000Y-60157500D01*
X150750000Y-61647500D02*
X150750000Y-60997500D01*
X150750000Y-56107500D02*
X150750000Y-56757500D01*
%TO.C,SW2*%
X113350000Y-47650000D02*
X98150000Y-47650000D01*
X98150000Y-62850000D02*
X113350000Y-62850000D01*
X113350000Y-62850000D02*
X113350000Y-47650000D01*
X98150000Y-47650000D02*
X98150000Y-62850000D01*
%TO.C,J1*%
X68275000Y-87037500D02*
X57750000Y-87037500D01*
X69850000Y-87037500D02*
X69850000Y-80837500D01*
X55750000Y-81437500D02*
X55750000Y-86437500D01*
X64775000Y-80837500D02*
X67175000Y-80837500D01*
X57750000Y-81437500D02*
X55750000Y-81437500D01*
X67175000Y-80837500D02*
X67175000Y-79437500D01*
X57750000Y-86437500D02*
X57750000Y-87037500D01*
X68725000Y-80837500D02*
X68725000Y-79437500D01*
X57750000Y-80837500D02*
X60125000Y-80837500D01*
X61775000Y-80837500D02*
X63125000Y-80837500D01*
X68725000Y-80837500D02*
X69850000Y-80837500D01*
X57750000Y-86437500D02*
X55750000Y-86437500D01*
X57750000Y-80837500D02*
X57750000Y-81437500D01*
%TO.C,D3*%
X132750000Y-56107500D02*
X132750000Y-56757500D01*
X131630000Y-60277500D02*
X133870000Y-60277500D01*
X131630000Y-56757500D02*
X131630000Y-60997500D01*
X133870000Y-56757500D02*
X131630000Y-56757500D01*
X131630000Y-60157500D02*
X133870000Y-60157500D01*
X131630000Y-60397500D02*
X133870000Y-60397500D01*
X132750000Y-61647500D02*
X132750000Y-60997500D01*
X131630000Y-60997500D02*
X133870000Y-60997500D01*
X133870000Y-60997500D02*
X133870000Y-56757500D01*
%TO.C,D8*%
X131630000Y-77157500D02*
X133870000Y-77157500D01*
X131630000Y-73757500D02*
X131630000Y-77997500D01*
X131630000Y-77397500D02*
X133870000Y-77397500D01*
X132750000Y-73107500D02*
X132750000Y-73757500D01*
X133870000Y-77997500D02*
X133870000Y-73757500D01*
X131630000Y-77277500D02*
X133870000Y-77277500D01*
X133870000Y-73757500D02*
X131630000Y-73757500D01*
X132750000Y-78647500D02*
X132750000Y-77997500D01*
X131630000Y-77997500D02*
X133870000Y-77997500D01*
%TO.C,D1*%
X95630000Y-60157500D02*
X97870000Y-60157500D01*
X95630000Y-56757500D02*
X95630000Y-60997500D01*
X95630000Y-60997500D02*
X97870000Y-60997500D01*
X96750000Y-61647500D02*
X96750000Y-60997500D01*
X97870000Y-60997500D02*
X97870000Y-56757500D01*
X96750000Y-56107500D02*
X96750000Y-56757500D01*
X95630000Y-60397500D02*
X97870000Y-60397500D01*
X95630000Y-60277500D02*
X97870000Y-60277500D01*
X97870000Y-56757500D02*
X95630000Y-56757500D01*
%TO.C,SW6*%
X80150000Y-64650000D02*
X80150000Y-79850000D01*
X95350000Y-79850000D02*
X95350000Y-64650000D01*
X95350000Y-64650000D02*
X80150000Y-64650000D01*
X80150000Y-79850000D02*
X95350000Y-79850000D01*
%TO.C,D5*%
X77630000Y-111997500D02*
X79870000Y-111997500D01*
X77630000Y-107757500D02*
X77630000Y-111997500D01*
X79870000Y-111997500D02*
X79870000Y-107757500D01*
X79870000Y-107757500D02*
X77630000Y-107757500D01*
X78750000Y-107107500D02*
X78750000Y-107757500D01*
X77630000Y-111277500D02*
X79870000Y-111277500D01*
X77630000Y-111397500D02*
X79870000Y-111397500D01*
X78750000Y-112647500D02*
X78750000Y-111997500D01*
X77630000Y-111157500D02*
X79870000Y-111157500D01*
%TO.C,SW9*%
X149350000Y-64650000D02*
X134150000Y-64650000D01*
X134150000Y-64650000D02*
X134150000Y-79850000D01*
X134150000Y-79850000D02*
X149350000Y-79850000D01*
X149350000Y-79850000D02*
X149350000Y-64650000D01*
%TD*%
D12*
%TO.C,U1*%
X59880000Y-49780000D03*
D13*
X59880000Y-52320000D03*
X59880000Y-54860000D03*
X59880000Y-57400000D03*
X59880000Y-59940000D03*
X59880000Y-62480000D03*
X59880000Y-65020000D03*
X59880000Y-67560000D03*
X59880000Y-70100000D03*
X59880000Y-72640000D03*
X59880000Y-75180000D03*
X59880000Y-77720000D03*
X75120000Y-77720000D03*
X75120000Y-75180000D03*
X75120000Y-72640000D03*
X75120000Y-70100000D03*
X75120000Y-67560000D03*
X75120000Y-65020000D03*
X75120000Y-62480000D03*
X75120000Y-59940000D03*
X75120000Y-57400000D03*
X75120000Y-54860000D03*
X75120000Y-52320000D03*
X75120000Y-49780000D03*
%TD*%
M02*
