M48
; DRILL file {KiCad (6.0.9)} date Wed 21 Dec 2022 06:53:25 PM +05
; FORMAT={-:-/ absolute / inch / decimal}
; #@! TF.CreationDate,2022-12-21T18:53:25+05:00
; #@! TF.GenerationSoftware,Kicad,Pcbnew,(6.0.9)
; #@! TF.FileFunction,NonPlated,1,2,NPTH
FMAT,2
INCH
; #@! TA.AperFunction,NonPlated,NPTH,ComponentDrill
T1C0.0591
; #@! TA.AperFunction,NonPlated,NPTH,ComponentDrill
T2C0.0630
; #@! TA.AperFunction,NonPlated,NPTH,ComponentDrill
T3C0.0748
; #@! TA.AperFunction,NonPlated,NPTH,ComponentDrill
T4C0.1201
; #@! TA.AperFunction,NonPlated,NPTH,ComponentDrill
T5C0.1988
%
G90
G05
T1
X2.3366Y-3.3046
X2.6122Y-3.3046
T2
X2.5492Y-4.3858
X3.2579Y-2.378
X3.2579Y-3.0472
X3.2579Y-4.3858
X3.9665Y-2.378
X3.9665Y-3.0472
X4.6752Y-2.378
X4.6752Y-3.0472
X5.3839Y-2.378
X5.3839Y-3.0472
T3
X2.5295Y-4.1831
X2.9626Y-4.1831
X3.2382Y-2.1752
X3.2382Y-2.8445
X3.2382Y-4.1831
X3.6713Y-2.1752
X3.6713Y-2.8445
X3.6713Y-4.1831
X3.9469Y-2.1752
X3.9469Y-2.8445
X4.3799Y-2.1752
X4.3799Y-2.8445
X4.6555Y-2.1752
X4.6555Y-2.8445
X5.0886Y-2.1752
X5.0886Y-2.8445
X5.3642Y-2.1752
X5.3642Y-2.8445
X5.7972Y-2.1752
X5.7972Y-2.8445
T4
X2.7461Y-3.9508
X2.9429Y-4.0335
X3.4547Y-1.9429
X3.4547Y-2.6122
X3.4547Y-3.9508
X3.6516Y-2.0256
X3.6516Y-2.6949
X3.6516Y-4.0335
X4.1634Y-1.9429
X4.1634Y-2.6122
X4.3602Y-2.0256
X4.3602Y-2.6949
X4.872Y-1.9429
X4.872Y-2.6122
X5.0689Y-2.0256
X5.0689Y-2.6949
X5.5807Y-1.9429
X5.5807Y-2.6122
X5.7776Y-2.0256
X5.7776Y-2.6949
T5
X2.7461Y-4.1831
X3.4547Y-2.1752
X3.4547Y-2.8445
X3.4547Y-4.1831
X4.1634Y-2.1752
X4.1634Y-2.8445
X4.872Y-2.1752
X4.872Y-2.8445
X5.5807Y-2.1752
X5.5807Y-2.8445
T0
M30
