%TF.GenerationSoftware,KiCad,Pcbnew,(6.0.9)*%
%TF.CreationDate,2022-12-21T17:39:27+05:00*%
%TF.ProjectId,vsrgkb-right,76737267-6b62-42d7-9269-6768742e6b69,rev?*%
%TF.SameCoordinates,Original*%
%TF.FileFunction,Copper,L2,Bot*%
%TF.FilePolarity,Positive*%
%FSLAX46Y46*%
G04 Gerber Fmt 4.6, Leading zero omitted, Abs format (unit mm)*
G04 Created by KiCad (PCBNEW (6.0.9)) date 2022-12-21 17:39:27*
%MOMM*%
%LPD*%
G01*
G04 APERTURE LIST*
G04 Aperture macros list*
%AMRoundRect*
0 Rectangle with rounded corners*
0 $1 Rounding radius*
0 $2 $3 $4 $5 $6 $7 $8 $9 X,Y pos of 4 corners*
0 Add a 4 corners polygon primitive as box body*
4,1,4,$2,$3,$4,$5,$6,$7,$8,$9,$2,$3,0*
0 Add four circle primitives for the rounded corners*
1,1,$1+$1,$2,$3*
1,1,$1+$1,$4,$5*
1,1,$1+$1,$6,$7*
1,1,$1+$1,$8,$9*
0 Add four rect primitives between the rounded corners*
20,1,$1+$1,$2,$3,$4,$5,0*
20,1,$1+$1,$4,$5,$6,$7,0*
20,1,$1+$1,$6,$7,$8,$9,0*
20,1,$1+$1,$8,$9,$2,$3,0*%
G04 Aperture macros list end*
%TA.AperFunction,ComponentPad*%
%ADD10R,1.600000X1.600000*%
%TD*%
%TA.AperFunction,ComponentPad*%
%ADD11O,1.600000X1.600000*%
%TD*%
%TA.AperFunction,SMDPad,CuDef*%
%ADD12RoundRect,0.250000X-1.025000X-1.000000X1.025000X-1.000000X1.025000X1.000000X-1.025000X1.000000X0*%
%TD*%
%TA.AperFunction,ComponentPad*%
%ADD13C,1.600000*%
%TD*%
%TA.AperFunction,Conductor*%
%ADD14C,0.250000*%
%TD*%
G04 APERTURE END LIST*
D10*
%TO.P,D9,1,K*%
%TO.N,/row2*%
X150750000Y-79687500D03*
D11*
%TO.P,D9,2,A*%
%TO.N,Net-(D9-Pad2)*%
X150750000Y-72067500D03*
%TD*%
D12*
%TO.P,SW8,1,1*%
%TO.N,/col3*%
X120250000Y-66250000D03*
%TO.P,SW8,2,2*%
%TO.N,Net-(D8-Pad2)*%
X132250000Y-68450000D03*
%TD*%
%TO.P,SW10,2,2*%
%TO.N,Net-(D10-Pad2)*%
X96250000Y-102450000D03*
%TO.P,SW10,1,1*%
%TO.N,/col5*%
X84250000Y-100250000D03*
%TD*%
%TO.P,SW4,1,1*%
%TO.N,/col4*%
X138250000Y-49250000D03*
%TO.P,SW4,2,2*%
%TO.N,Net-(D4-Pad2)*%
X150250000Y-51450000D03*
%TD*%
D10*
%TO.P,D6,1,K*%
%TO.N,/row2*%
X96750000Y-79687500D03*
D11*
%TO.P,D6,2,A*%
%TO.N,Net-(D6-Pad2)*%
X96750000Y-72067500D03*
%TD*%
D10*
%TO.P,D2,1,K*%
%TO.N,/row1*%
X114750000Y-62687500D03*
D11*
%TO.P,D2,2,A*%
%TO.N,Net-(D2-Pad2)*%
X114750000Y-55067500D03*
%TD*%
D10*
%TO.P,D10,1,K*%
%TO.N,/row2*%
X96750000Y-113687500D03*
D11*
%TO.P,D10,2,A*%
%TO.N,Net-(D10-Pad2)*%
X96750000Y-106067500D03*
%TD*%
D12*
%TO.P,SW3,1,1*%
%TO.N,/col3*%
X120250000Y-49250000D03*
%TO.P,SW3,2,2*%
%TO.N,Net-(D3-Pad2)*%
X132250000Y-51450000D03*
%TD*%
%TO.P,SW5,1,1*%
%TO.N,/col5*%
X66250000Y-100250000D03*
%TO.P,SW5,2,2*%
%TO.N,Net-(D5-Pad2)*%
X78250000Y-102450000D03*
%TD*%
D11*
%TO.P,D7,2,A*%
%TO.N,Net-(D7-Pad2)*%
X114750000Y-72067500D03*
D10*
%TO.P,D7,1,K*%
%TO.N,/row2*%
X114750000Y-79687500D03*
%TD*%
%TO.P,U1,1,TX*%
%TO.N,unconnected-(U1-Pad1)*%
X59880000Y-49780000D03*
D13*
%TO.P,U1,2,RX*%
%TO.N,unconnected-(U1-Pad2)*%
X59880000Y-52320000D03*
%TO.P,U1,3,GND*%
%TO.N,unconnected-(U1-Pad3)*%
X59880000Y-54860000D03*
%TO.P,U1,4,GND*%
%TO.N,Net-(U1-Pad4)*%
X59880000Y-57400000D03*
%TO.P,U1,5,SDA*%
%TO.N,unconnected-(U1-Pad5)*%
X59880000Y-59940000D03*
%TO.P,U1,6,SCL*%
%TO.N,unconnected-(U1-Pad6)*%
X59880000Y-62480000D03*
%TO.P,U1,7,D4*%
%TO.N,unconnected-(U1-Pad7)*%
X59880000Y-65020000D03*
%TO.P,U1,8,C6*%
%TO.N,unconnected-(U1-Pad8)*%
X59880000Y-67560000D03*
%TO.P,U1,9,D7*%
%TO.N,unconnected-(U1-Pad9)*%
X59880000Y-70100000D03*
%TO.P,U1,10,E6*%
%TO.N,unconnected-(U1-Pad10)*%
X59880000Y-72640000D03*
%TO.P,U1,11,B4*%
%TO.N,unconnected-(U1-Pad11)*%
X59880000Y-75180000D03*
%TO.P,U1,12,B5*%
%TO.N,Net-(J1-PadR1)*%
X59880000Y-77720000D03*
%TO.P,U1,13,B6*%
%TO.N,/row2*%
X75120000Y-77720000D03*
%TO.P,U1,14,B2*%
%TO.N,/col5*%
X75120000Y-75180000D03*
%TO.P,U1,15,B3*%
%TO.N,/col4*%
X75120000Y-72640000D03*
%TO.P,U1,16,B1*%
%TO.N,/col3*%
X75120000Y-70100000D03*
%TO.P,U1,17,F7*%
%TO.N,/col2*%
X75120000Y-67560000D03*
%TO.P,U1,18,F6*%
%TO.N,/col1*%
X75120000Y-65020000D03*
%TO.P,U1,19,F5*%
%TO.N,/row1*%
X75120000Y-62480000D03*
%TO.P,U1,20,F4*%
%TO.N,unconnected-(U1-Pad20)*%
X75120000Y-59940000D03*
%TO.P,U1,21,VCC*%
%TO.N,Net-(J1-PadT)*%
X75120000Y-57400000D03*
%TO.P,U1,22,RST*%
%TO.N,unconnected-(U1-Pad22)*%
X75120000Y-54860000D03*
%TO.P,U1,23,GND*%
%TO.N,unconnected-(U1-Pad23)*%
X75120000Y-52320000D03*
%TO.P,U1,24,RAW*%
%TO.N,unconnected-(U1-Pad24)*%
X75120000Y-49780000D03*
%TD*%
D12*
%TO.P,SW1,1,1*%
%TO.N,/col1*%
X84250000Y-49250000D03*
%TO.P,SW1,2,2*%
%TO.N,Net-(D1-Pad2)*%
X96250000Y-51450000D03*
%TD*%
%TO.P,SW7,1,1*%
%TO.N,/col2*%
X102250000Y-66250000D03*
%TO.P,SW7,2,2*%
%TO.N,Net-(D7-Pad2)*%
X114250000Y-68450000D03*
%TD*%
D10*
%TO.P,D4,1,K*%
%TO.N,/row1*%
X150750000Y-62687500D03*
D11*
%TO.P,D4,2,A*%
%TO.N,Net-(D4-Pad2)*%
X150750000Y-55067500D03*
%TD*%
D12*
%TO.P,SW2,1,1*%
%TO.N,/col2*%
X102250000Y-49250000D03*
%TO.P,SW2,2,2*%
%TO.N,Net-(D2-Pad2)*%
X114250000Y-51450000D03*
%TD*%
D10*
%TO.P,D3,1,K*%
%TO.N,/row1*%
X132750000Y-62687500D03*
D11*
%TO.P,D3,2,A*%
%TO.N,Net-(D3-Pad2)*%
X132750000Y-55067500D03*
%TD*%
D10*
%TO.P,D8,1,K*%
%TO.N,/row2*%
X132750000Y-79687500D03*
D11*
%TO.P,D8,2,A*%
%TO.N,Net-(D8-Pad2)*%
X132750000Y-72067500D03*
%TD*%
D10*
%TO.P,D1,1,K*%
%TO.N,/row1*%
X96750000Y-62687500D03*
D11*
%TO.P,D1,2,A*%
%TO.N,Net-(D1-Pad2)*%
X96750000Y-55067500D03*
%TD*%
D12*
%TO.P,SW6,1,1*%
%TO.N,/col1*%
X84250000Y-66250000D03*
%TO.P,SW6,2,2*%
%TO.N,Net-(D6-Pad2)*%
X96250000Y-68450000D03*
%TD*%
D10*
%TO.P,D5,1,K*%
%TO.N,/row1*%
X78750000Y-113687500D03*
D11*
%TO.P,D5,2,A*%
%TO.N,Net-(D5-Pad2)*%
X78750000Y-106067500D03*
%TD*%
D12*
%TO.P,SW9,1,1*%
%TO.N,/col4*%
X138250000Y-66250000D03*
%TO.P,SW9,2,2*%
%TO.N,Net-(D9-Pad2)*%
X150250000Y-68450000D03*
%TD*%
D14*
%TO.N,/col5*%
X73125000Y-97750000D02*
X81750000Y-97750000D01*
X81750000Y-97750000D02*
X84250000Y-100250000D01*
X66250000Y-100250000D02*
X68750000Y-97750000D01*
X68750000Y-97750000D02*
X73125000Y-97750000D01*
X75120000Y-75180000D02*
X73125000Y-77175000D01*
X73125000Y-77175000D02*
X73125000Y-97750000D01*
%TO.N,/col4*%
X138250000Y-66250000D02*
X138250000Y-72123835D01*
X138250000Y-72123835D02*
X134486335Y-75887500D01*
X134486335Y-75887500D02*
X78367500Y-75887500D01*
X78367500Y-75887500D02*
X75120000Y-72640000D01*
%TO.N,/col3*%
X120250000Y-66250000D02*
X120250000Y-72123835D01*
X120250000Y-72123835D02*
X116936335Y-75437500D01*
X116936335Y-75437500D02*
X80457500Y-75437500D01*
X80457500Y-75437500D02*
X75120000Y-70100000D01*
%TO.N,/col2*%
X102250000Y-66250000D02*
X90537008Y-66250000D01*
X90537008Y-66250000D02*
X87724508Y-69062500D01*
X87724508Y-69062500D02*
X76622500Y-69062500D01*
X76622500Y-69062500D02*
X75120000Y-67560000D01*
%TO.N,/col1*%
X84250000Y-66250000D02*
X79125000Y-66250000D01*
X79125000Y-66250000D02*
X77895000Y-65020000D01*
X77895000Y-65020000D02*
X75120000Y-65020000D01*
X84250000Y-49250000D02*
X84250000Y-66250000D01*
%TO.N,Net-(D10-Pad2)*%
X96250000Y-102450000D02*
X96750000Y-102950000D01*
X96750000Y-102950000D02*
X96750000Y-106067500D01*
%TO.N,Net-(D5-Pad2)*%
X78250000Y-102450000D02*
X78750000Y-102950000D01*
X78750000Y-102950000D02*
X78750000Y-106067500D01*
%TO.N,Net-(D1-Pad2)*%
X96250000Y-51450000D02*
X96750000Y-51950000D01*
X96750000Y-51950000D02*
X96750000Y-55067500D01*
%TO.N,Net-(D2-Pad2)*%
X114250000Y-51450000D02*
X114750000Y-51950000D01*
X114750000Y-51950000D02*
X114750000Y-55067500D01*
%TO.N,Net-(D3-Pad2)*%
X132250000Y-51450000D02*
X132750000Y-51950000D01*
X132750000Y-51950000D02*
X132750000Y-55067500D01*
%TO.N,Net-(D4-Pad2)*%
X150250000Y-51450000D02*
X150750000Y-51950000D01*
X150750000Y-51950000D02*
X150750000Y-55067500D01*
%TO.N,Net-(D9-Pad2)*%
X150250000Y-68450000D02*
X150750000Y-68950000D01*
X150750000Y-68950000D02*
X150750000Y-72067500D01*
%TO.N,Net-(D8-Pad2)*%
X132250000Y-68450000D02*
X132750000Y-68950000D01*
X132750000Y-68950000D02*
X132750000Y-72067500D01*
%TO.N,Net-(D7-Pad2)*%
X114250000Y-68450000D02*
X114750000Y-68950000D01*
X114750000Y-68950000D02*
X114750000Y-72067500D01*
%TO.N,Net-(D6-Pad2)*%
X96250000Y-68450000D02*
X96750000Y-68950000D01*
X96750000Y-68950000D02*
X96750000Y-72067500D01*
%TO.N,/col2*%
X102250000Y-49250000D02*
X102250000Y-66250000D01*
%TO.N,/col3*%
X120250000Y-49250000D02*
X120250000Y-66250000D01*
%TO.N,/col4*%
X138250000Y-49250000D02*
X138250000Y-66250000D01*
%TD*%
M02*
