%TF.GenerationSoftware,KiCad,Pcbnew,(6.0.9)*%
%TF.CreationDate,2022-12-21T17:39:27+05:00*%
%TF.ProjectId,vsrgkb-right,76737267-6b62-42d7-9269-6768742e6b69,rev?*%
%TF.SameCoordinates,Original*%
%TF.FileFunction,Soldermask,Top*%
%TF.FilePolarity,Negative*%
%FSLAX46Y46*%
G04 Gerber Fmt 4.6, Leading zero omitted, Abs format (unit mm)*
G04 Created by KiCad (PCBNEW (6.0.9)) date 2022-12-21 17:39:27*
%MOMM*%
%LPD*%
G01*
G04 APERTURE LIST*
%ADD10R,1.600000X1.600000*%
%ADD11O,1.600000X1.600000*%
%ADD12C,3.050000*%
%ADD13C,1.900000*%
%ADD14C,5.050000*%
%ADD15C,1.600000*%
%ADD16C,1.500000*%
%ADD17R,1.200000X2.500000*%
G04 APERTURE END LIST*
D10*
%TO.C,D9*%
X150750000Y-79687500D03*
D11*
X150750000Y-72067500D03*
%TD*%
D12*
%TO.C,SW8*%
X128750000Y-68450000D03*
D13*
X129250000Y-72250000D03*
X118250000Y-72250000D03*
D14*
X123750000Y-72250000D03*
D15*
X118750000Y-77400000D03*
D12*
X123750000Y-66350000D03*
%TD*%
D13*
%TO.C,SW10*%
X93250000Y-106250000D03*
D14*
X87750000Y-106250000D03*
D13*
X82250000Y-106250000D03*
D15*
X82750000Y-111400000D03*
D12*
X92750000Y-102450000D03*
X87750000Y-100350000D03*
%TD*%
D14*
%TO.C,SW4*%
X141750000Y-55250000D03*
D13*
X147250000Y-55250000D03*
D12*
X146750000Y-51450000D03*
X141750000Y-49350000D03*
D15*
X136750000Y-60400000D03*
D13*
X136250000Y-55250000D03*
%TD*%
D10*
%TO.C,D6*%
X96750000Y-79687500D03*
D11*
X96750000Y-72067500D03*
%TD*%
D10*
%TO.C,D2*%
X114750000Y-62687500D03*
D11*
X114750000Y-55067500D03*
%TD*%
D10*
%TO.C,D10*%
X96750000Y-113687500D03*
D11*
X96750000Y-106067500D03*
%TD*%
D13*
%TO.C,SW3*%
X118250000Y-55250000D03*
D12*
X123750000Y-49350000D03*
D14*
X123750000Y-55250000D03*
D12*
X128750000Y-51450000D03*
D13*
X129250000Y-55250000D03*
D15*
X118750000Y-60400000D03*
%TD*%
D12*
%TO.C,SW5*%
X69750000Y-100350000D03*
D13*
X64250000Y-106250000D03*
X75250000Y-106250000D03*
D14*
X69750000Y-106250000D03*
D12*
X74750000Y-102450000D03*
D15*
X64750000Y-111400000D03*
%TD*%
D11*
%TO.C,D7*%
X114750000Y-72067500D03*
D10*
X114750000Y-79687500D03*
%TD*%
%TO.C,U1*%
X59880000Y-49780000D03*
D15*
X59880000Y-52320000D03*
X59880000Y-54860000D03*
X59880000Y-57400000D03*
X59880000Y-59940000D03*
X59880000Y-62480000D03*
X59880000Y-65020000D03*
X59880000Y-67560000D03*
X59880000Y-70100000D03*
X59880000Y-72640000D03*
X59880000Y-75180000D03*
X59880000Y-77720000D03*
X75120000Y-77720000D03*
X75120000Y-75180000D03*
X75120000Y-72640000D03*
X75120000Y-70100000D03*
X75120000Y-67560000D03*
X75120000Y-65020000D03*
X75120000Y-62480000D03*
X75120000Y-59940000D03*
X75120000Y-57400000D03*
X75120000Y-54860000D03*
X75120000Y-52320000D03*
X75120000Y-49780000D03*
%TD*%
D12*
%TO.C,SW1*%
X92750000Y-51450000D03*
D13*
X93250000Y-55250000D03*
D14*
X87750000Y-55250000D03*
D12*
X87750000Y-49350000D03*
D15*
X82750000Y-60400000D03*
D13*
X82250000Y-55250000D03*
%TD*%
D12*
%TO.C,SW7*%
X110750000Y-68450000D03*
D14*
X105750000Y-72250000D03*
D13*
X100250000Y-72250000D03*
D15*
X100750000Y-77400000D03*
D12*
X105750000Y-66350000D03*
D13*
X111250000Y-72250000D03*
%TD*%
D10*
%TO.C,D4*%
X150750000Y-62687500D03*
D11*
X150750000Y-55067500D03*
%TD*%
D13*
%TO.C,SW2*%
X111250000Y-55250000D03*
X100250000Y-55250000D03*
D14*
X105750000Y-55250000D03*
D15*
X100750000Y-60400000D03*
D12*
X105750000Y-49350000D03*
X110750000Y-51450000D03*
%TD*%
D16*
%TO.C,J1*%
X66350000Y-83937500D03*
X59350000Y-83937500D03*
D17*
X63950000Y-80687500D03*
X60950000Y-80687500D03*
X69050000Y-87187500D03*
X67950000Y-80687500D03*
%TD*%
D10*
%TO.C,D3*%
X132750000Y-62687500D03*
D11*
X132750000Y-55067500D03*
%TD*%
D10*
%TO.C,D8*%
X132750000Y-79687500D03*
D11*
X132750000Y-72067500D03*
%TD*%
D10*
%TO.C,D1*%
X96750000Y-62687500D03*
D11*
X96750000Y-55067500D03*
%TD*%
D13*
%TO.C,SW6*%
X82250000Y-72250000D03*
D15*
X82750000Y-77400000D03*
D14*
X87750000Y-72250000D03*
D13*
X93250000Y-72250000D03*
D12*
X92750000Y-68450000D03*
X87750000Y-66350000D03*
%TD*%
D10*
%TO.C,D5*%
X78750000Y-113687500D03*
D11*
X78750000Y-106067500D03*
%TD*%
D13*
%TO.C,SW9*%
X136250000Y-72250000D03*
D12*
X146750000Y-68450000D03*
D13*
X147250000Y-72250000D03*
D12*
X141750000Y-66350000D03*
D15*
X136750000Y-77400000D03*
D14*
X141750000Y-72250000D03*
%TD*%
M02*
