M48
; DRILL file {KiCad (6.0.9)} date Wed 21 Dec 2022 06:53:25 PM +05
; FORMAT={-:-/ absolute / inch / decimal}
; #@! TF.CreationDate,2022-12-21T18:53:25+05:00
; #@! TF.GenerationSoftware,Kicad,Pcbnew,(6.0.9)
; #@! TF.FileFunction,Plated,1,2,PTH
FMAT,2
INCH
; #@! TA.AperFunction,Plated,PTH,ComponentDrill
T1C0.0315
; #@! TA.AperFunction,Plated,PTH,ComponentDrill
T2C0.0433
%
G90
G05
T1
X3.1004Y-4.1759
X3.1004Y-4.4759
X3.8091Y-2.168
X3.8091Y-2.468
X3.8091Y-2.8373
X3.8091Y-3.1373
X3.8091Y-4.1759
X3.8091Y-4.4759
X4.5177Y-2.168
X4.5177Y-2.468
X4.5177Y-2.8373
X4.5177Y-3.1373
X5.2264Y-2.168
X5.2264Y-2.468
X5.2264Y-2.8373
X5.2264Y-3.1373
X5.935Y-2.168
X5.935Y-2.468
X5.935Y-2.8373
X5.935Y-3.1373
T2
X2.3575Y-1.9598
X2.3575Y-2.0598
X2.3575Y-2.1598
X2.3575Y-2.2598
X2.3575Y-2.3598
X2.3575Y-2.4598
X2.3575Y-2.5598
X2.3575Y-2.6598
X2.3575Y-2.7598
X2.3575Y-2.8598
X2.3575Y-2.9598
X2.3575Y-3.0598
X2.9575Y-1.9598
X2.9575Y-2.0598
X2.9575Y-2.1598
X2.9575Y-2.2598
X2.9575Y-2.3598
X2.9575Y-2.4598
X2.9575Y-2.5598
X2.9575Y-2.6598
X2.9575Y-2.7598
X2.9575Y-2.8598
X2.9575Y-2.9598
X2.9575Y-3.0598
T0
M30
