M48
; DRILL file {KiCad (6.0.9)} date Wed 21 Dec 2022 06:53:45 PM +05
; FORMAT={-:-/ absolute / inch / decimal}
; #@! TF.CreationDate,2022-12-21T18:53:45+05:00
; #@! TF.GenerationSoftware,Kicad,Pcbnew,(6.0.9)
; #@! TF.FileFunction,NonPlated,1,2,NPTH
FMAT,2
INCH
; #@! TA.AperFunction,NonPlated,NPTH,ComponentDrill
T1C0.0591
; #@! TA.AperFunction,NonPlated,NPTH,ComponentDrill
T2C0.0630
; #@! TA.AperFunction,NonPlated,NPTH,ComponentDrill
T3C0.0748
; #@! TA.AperFunction,NonPlated,NPTH,ComponentDrill
T4C0.1201
; #@! TA.AperFunction,NonPlated,NPTH,ComponentDrill
T5C0.1988
%
G90
G05
T1
X5.7146Y-3.3046
X5.9902Y-3.3046
T2
X2.5492Y-2.378
X2.5492Y-3.0472
X3.2579Y-2.378
X3.2579Y-3.0472
X3.9665Y-2.378
X3.9665Y-3.0472
X4.6752Y-2.378
X4.6752Y-3.0472
X4.6752Y-4.3858
X5.3839Y-4.3858
T3
X2.5295Y-2.1752
X2.5295Y-2.8445
X2.9626Y-2.1752
X2.9626Y-2.8445
X3.2382Y-2.1752
X3.2382Y-2.8445
X3.6713Y-2.1752
X3.6713Y-2.8445
X3.9469Y-2.1752
X3.9469Y-2.8445
X4.3799Y-2.1752
X4.3799Y-2.8445
X4.6555Y-2.1752
X4.6555Y-2.8445
X4.6555Y-4.1831
X5.0886Y-2.1752
X5.0886Y-2.8445
X5.0886Y-4.1831
X5.3642Y-4.1831
X5.7972Y-4.1831
T4
X2.7461Y-1.9429
X2.7461Y-2.6122
X2.9429Y-2.0256
X2.9429Y-2.6949
X3.4547Y-1.9429
X3.4547Y-2.6122
X3.6516Y-2.0256
X3.6516Y-2.6949
X4.1634Y-1.9429
X4.1634Y-2.6122
X4.3602Y-2.0256
X4.3602Y-2.6949
X4.872Y-1.9429
X4.872Y-2.6122
X4.872Y-3.9508
X5.0689Y-2.0256
X5.0689Y-2.6949
X5.0689Y-4.0335
X5.5807Y-3.9508
X5.7776Y-4.0335
T5
X2.7461Y-2.1752
X2.7461Y-2.8445
X3.4547Y-2.1752
X3.4547Y-2.8445
X4.1634Y-2.1752
X4.1634Y-2.8445
X4.872Y-2.1752
X4.872Y-2.8445
X4.872Y-4.1831
X5.5807Y-4.1831
T0
M30
